# 3ds Max Wavefront OBJ Exporter v0.99 - (c)2007 guruware
# File Created: 18.10.2024 00:57:22

mtllib box6.mtl

#
# object Box001
#

v  -0.5000 0.0000 0.5000
v  -0.5000 0.0000 -0.5000
v  0.5000 0.0000 -0.5000
v  0.5000 0.0000 0.5000
v  0.0000 1.2500 0.2757
v  0.0000 1.4777 -0.0000
v  -0.2757 1.2500 -0.0000
v  -0.2016 1.2500 0.2016
v  0.5000 1.0000 0.5000
v  -0.5000 1.0000 0.5000
v  0.5000 1.0000 -0.5000
v  -0.5000 1.0000 -0.5000
v  0.4400 1.0000 0.4400
v  -0.4400 1.0000 0.4400
v  0.4400 1.0000 -0.4400
v  -0.4400 1.0000 -0.4400
v  0.4400 1.0500 0.4400
v  -0.4400 1.0500 0.4400
v  0.4400 1.0500 -0.4400
v  -0.4400 1.0500 -0.4400
v  0.2016 1.0500 0.2016
v  0.0000 1.0500 0.2757
v  -0.2016 1.0500 0.2016
v  0.2016 1.0500 -0.2016
v  0.2757 1.0500 -0.0000
v  -0.2016 1.0500 -0.2016
v  0.0000 1.0500 -0.2757
v  -0.2757 1.0500 -0.0000
v  0.2016 1.2500 -0.2016
v  0.0000 1.2500 -0.2757
v  0.2757 1.2500 -0.0000
v  0.2016 1.2500 0.2016
v  -0.2016 1.2500 -0.2016
# 33 vertices

vn 0.0000 -1.0000 -0.0000
vn -0.0962 0.8338 0.5436
vn -0.0310 0.9990 0.0310
vn -0.5436 0.8338 0.0962
vn 0.0000 1.0000 -0.0000
vn 0.0000 0.0000 1.0000
vn 1.0000 0.0000 -0.0000
vn 0.0000 0.0000 -1.0000
vn -1.0000 0.0000 -0.0000
vn 0.4413 0.7814 -0.4413
vn 0.0000 0.7710 -0.6368
vn 0.6368 0.7710 -0.0000
vn 0.4413 0.7814 0.4413
vn -0.4413 0.7814 -0.4413
vn -0.3451 0.0000 0.9386
vn 0.3451 0.0000 0.9386
vn 0.9386 0.0000 0.3451
vn 0.9386 0.0000 -0.3451
vn 0.3451 0.0000 -0.9386
vn -0.3451 0.0000 -0.9386
vn -0.9386 0.0000 -0.3451
vn -0.9386 0.0000 0.3451
# 22 vertex normals

vt 1.0000 0.0000 0.0000
vt 1.0000 1.0000 0.0000
vt 0.0000 1.0000 0.0000
vt 0.0000 0.0000 0.0000
vt 0.5000 0.0000 0.0000
vt 0.5000 0.5000 0.0000
vt 0.0000 0.5000 0.0000
vt 1.0000 0.5000 0.0000
vt 0.5000 1.0000 0.0000
# 9 texture coords

o Box001
g Box001
usemtl wire_050124020
s 2
f 1/1/1 2/2/1 3/3/1 
f 3/3/1 4/4/1 1/1/1 
s 4
f 5/5/2 6/6/3 7/7/4 
f 7/7/4 8/4/5 5/5/2 
s 8
f 1/4/6 4/1/6 9/2/6 
f 9/2/6 10/3/6 1/4/6 
s 16
f 4/4/7 3/1/7 11/2/7 
f 11/2/7 9/3/7 4/4/7 
s 32
f 3/4/8 2/1/8 12/2/8 
f 12/2/8 11/3/8 3/4/8 
s 64
f 2/4/9 1/1/9 10/2/9 
f 10/2/9 12/3/9 2/4/9 
s off
f 10/4/5 9/1/5 13/1/5 
f 13/1/5 14/4/5 10/4/5 
f 9/1/5 11/2/5 15/2/5 
f 15/2/5 13/1/5 9/1/5 
f 11/2/5 12/3/5 16/3/5 
f 16/3/5 15/2/5 11/2/5 
f 12/3/5 10/4/5 14/4/5 
f 14/4/5 16/3/5 12/3/5 
f 14/4/6 13/1/6 17/1/6 
f 17/1/6 18/4/6 14/4/6 
f 13/1/7 15/2/7 19/2/7 
f 19/2/7 17/1/7 13/1/7 
f 15/2/8 16/3/8 20/3/8 
f 20/3/8 19/2/8 15/2/8 
f 16/3/9 14/4/9 18/4/9 
f 18/4/9 20/3/9 16/3/9 
f 18/4/5 17/1/5 21/1/5 
f 18/4/5 21/1/5 22/5/5 
f 18/4/5 22/5/5 23/4/5 
f 17/1/5 19/2/5 24/2/5 
f 17/1/5 24/2/5 25/8/5 
f 17/1/5 25/8/5 21/1/5 
f 19/2/5 20/3/5 26/3/5 
f 19/2/5 26/3/5 27/9/5 
f 19/2/5 27/9/5 24/2/5 
f 20/3/5 18/4/5 23/4/5 
f 20/3/5 23/4/5 28/7/5 
f 20/3/5 28/7/5 26/3/5 
s 4
f 29/2/10 30/9/11 6/6/3 
f 6/6/3 31/8/12 29/2/10 
f 32/1/13 31/8/12 6/6/3 
f 6/6/3 5/5/2 32/1/13 
f 33/3/14 7/7/4 6/6/3 
f 6/6/3 30/9/11 33/3/14 
s off
f 23/4/15 22/5/15 5/5/15 
f 5/5/15 8/4/15 23/4/15 
f 22/5/16 21/1/16 32/1/16 
f 32/1/16 5/5/16 22/5/16 
f 21/1/17 25/8/17 31/8/17 
f 31/8/17 32/1/17 21/1/17 
f 25/8/18 24/2/18 29/2/18 
f 29/2/18 31/8/18 25/8/18 
f 24/2/19 27/9/19 30/9/19 
f 30/9/19 29/2/19 24/2/19 
f 27/9/20 26/3/20 33/3/20 
f 33/3/20 30/9/20 27/9/20 
f 26/3/21 28/7/21 7/7/21 
f 7/7/21 33/3/21 26/3/21 
f 28/7/22 23/4/22 8/4/22 
f 8/4/22 7/7/22 28/7/22 
# 62 faces

