# 3ds Max Wavefront OBJ Exporter v0.99 - (c)2007 guruware
# File Created: 30.10.2024 20:17:01

mtllib box_arm_right.mtl

#
# object Box004
#

v  1.5000 3.0000 -0.5000
v  1.5000 5.5000 -0.5000
v  1.5000 5.5000 0.5000
v  1.5000 3.0000 0.5000
v  1.0000 3.0000 0.5000
v  1.0000 3.0000 -0.5000
v  0.5000 3.0000 -0.5000
v  0.5000 3.0000 0.5000
v  1.0000 5.5000 0.5000
v  1.0000 5.5000 -0.5000
v  0.5000 5.5000 -0.5000
v  0.5000 5.5000 0.5000
# 12 vertices

vn 1.0000 0.0000 -0.0000
vn 0.0000 -1.0000 -0.0000
vn 0.0000 1.0000 -0.0000
vn 0.0000 0.0000 1.0000
vn -1.0000 0.0000 -0.0000
vn 0.0000 0.0000 -1.0000
# 6 vertex normals

vt 0.0000 0.0000 0.0000
vt 0.0000 1.0000 0.0000
vt 1.0000 1.0000 0.0000
vt 1.0000 0.0000 0.0000
vt 0.5000 0.0000 0.0000
vt 0.5000 1.0000 0.0000
# 6 texture coords

o Box004
g Box004
usemtl wire_143225087
s 64
f 1/1/1 2/2/1 3/3/1 
f 3/3/1 4/4/1 1/1/1 
s 2
f 1/3/2 4/4/2 5/5/2 
f 6/6/2 1/3/2 5/5/2 
f 7/3/2 6/6/2 5/5/2 
f 8/4/2 7/3/2 5/5/2 
s 4
f 9/5/3 3/1/3 2/2/3 
f 9/5/3 2/2/3 10/6/3 
f 9/5/3 10/6/3 11/2/3 
f 12/1/3 9/5/3 11/2/3 
s 8
f 5/5/4 4/1/4 3/2/4 
f 5/5/4 3/2/4 9/6/4 
f 5/5/4 9/6/4 12/2/4 
f 8/1/4 5/5/4 12/2/4 
s 64
f 7/1/5 8/4/5 12/3/5 
f 12/3/5 11/2/5 7/1/5 
s 32
f 2/3/6 1/4/6 6/5/6 
f 10/6/6 2/3/6 6/5/6 
f 6/5/6 7/4/6 11/3/6 
f 10/6/6 6/5/6 11/3/6 
# 20 faces

