# 3ds Max Wavefront OBJ Exporter v0.99 - (c)2007 guruware
# File Created: 25.11.2024 00:04:24

mtllib pira2.mtl

#
# object Pyramid001
#

v  0.0000 5.0000 -0.0000
v  5.0000 -5.0000 5.0000
v  5.0000 -5.0000 -5.0000
v  -5.0000 -5.0000 -5.0000
v  -5.0000 -5.0000 5.0000
v  0.0000 -5.0000 -0.0000
# 6 vertices

vn 0.8944 0.4472 -0.0000
vn 0.0000 0.4472 -0.8944
vn -0.8944 0.4472 -0.0000
vn 0.0000 -1.0000 -0.0000
# 4 vertex normals

vt 0.5000 1.0000 0.0000
vt 0.0000 0.0000 0.0000
vt 1.0000 0.0000 0.0000
vt 0.0000 1.0000 0.0000
vt 0.5000 0.5000 0.0000
vt 1.0000 1.0000 0.0000
# 6 texture coords

o Pyramid001
g Pyramid001
usemtl wire_228184153
s 2
f 1/1/1 2/2/1 3/3/1 
s 16
f 1/1/2 3/2/2 4/3/2 
s 32
f 1/1/3 4/2/3 5/3/3 
s 8
f 5/4/4 6/5/4 2/6/4 
f 2/6/4 6/5/4 3/3/4 
f 3/3/4 6/5/4 4/2/4 
f 4/2/4 6/5/4 5/4/4 
# 7 faces

