# Blender 4.2.3 LTS
# www.blender.org
mtllib tetrahedron.mtl
o Cube
v 0.000000 0.500000 0.000000
v 0.500000 -0.500000 -0.500000
v -0.500000 -0.500000 -0.500000
v -0.500000 -0.500000 0.500000
vn -0.8944 0.4472 -0.0000
vn -0.0000 -1.0000 -0.0000
vn -0.0000 0.4472 -0.8944
vn 0.7071 -0.0000 0.7071
vt 0.375000 0.000000
vt 0.625000 0.250000
vt 0.375000 0.250000
vt 0.125000 0.500000
vt 0.375000 0.750000
vt 0.125000 0.750000
vt 0.625000 0.500000
vt 0.375000 0.500000
vt 0.000000 0.000000
s 0
usemtl Material
f 4/1/1 1/2/1 3/3/1
f 3/4/2 2/5/2 4/6/2
f 3/3/3 1/7/3 2/8/3
f 1/9/4 4/9/4 2/9/4
