# 3ds Max Wavefront OBJ Exporter v0.99 - (c)2007 guruware
# File Created: 19.11.2024 00:35:45

mtllib box_back_v1.mtl

#
# object Plane002
#

v  -20.0000 20.0000 0.0000
v  -20.0000 -20.0000 -0.0000
v  20.0000 -20.0000 -0.0000
v  20.0000 20.0000 0.0000
# 4 vertices

vn 0.0000 -0.0000 1.0000
# 1 vertex normals

vt 0.0000 1.0000 0.0000
vt 0.0000 0.0000 0.0000
vt 1.0000 0.0000 0.0000
vt 1.0000 1.0000 0.0000
# 4 texture coords

o Plane002
g Plane002
usemtl wire_229166215
s 1
f 1/1/1 2/2/1 3/3/1 4/4/1 
# 1 polygons

