# 3ds Max Wavefront OBJ Exporter v0.99 - (c)2007 guruware
# File Created: 18.11.2024 15:46:38

mtllib box_left.mtl

#
# object Plane004
#

v  -20.0000 40.0000 20.0000
v  -20.0000 0.0000 20.0000
v  -20.0000 40.0000 -20.0000
v  -20.0000 0.0000 -20.0000
# 4 vertices

vn 1.0000 -0.0000 0.0000
# 1 vertex normals

vt 0.0000 1.0000 0.0000
vt 0.0000 0.0000 0.0000
vt 1.0000 1.0000 0.0000
vt 1.0000 0.0000 0.0000
# 4 texture coords

o Plane004
g Plane004
usemtl wire_141007058
s 1
f 1/1/1 2/2/1 3/3/1 
f 4/4/1 3/3/1 2/2/1 
# 2 faces

