# 3ds Max Wavefront OBJ Exporter v0.99 - (c)2007 guruware
# File Created: 19.11.2024 01:52:09

mtllib box_left_v1.mtl

#
# object Plane004
#

v  -20.0000 20.0000 20.0000
v  -20.0000 -20.0000 20.0000
v  -20.0000 -20.0000 -20.0000
v  -20.0000 20.0000 -20.0000
# 4 vertices

vn 1.0000 -0.0000 0.0000
# 1 vertex normals

vt 0.0000 1.0000 0.0000
vt 0.0000 0.0000 0.0000
vt 1.0000 0.0000 0.0000
vt 1.0000 1.0000 0.0000
# 4 texture coords

o Plane004
g Plane004
usemtl wire_141007058
s 1
f 1/1/1 2/2/1 3/3/1 4/4/1 
# 1 polygons

