# 3ds Max Wavefront OBJ Exporter v0.99 - (c)2007 guruware
# File Created: 28.11.2024 23:22:42

mtllib dd.mtl

#
# object Box001
#

v  -3.5000 0.0000 2.5000
v  -3.5000 0.0000 -2.5000
v  3.5000 0.0000 -2.5000
v  3.5000 0.0000 2.5000
v  -3.5000 1.0000 2.5000
v  3.5000 1.0000 2.5000
v  3.5000 1.0000 -2.5000
v  -3.5000 1.0000 -2.5000
# 8 vertices

vn 0.0000 -1.0000 -0.0000
vn 0.0000 1.0000 -0.0000
vn 0.0000 0.0000 1.0000
vn 1.0000 0.0000 -0.0000
vn 0.0000 0.0000 -1.0000
vn -1.0000 0.0000 -0.0000
# 6 vertex normals

vt -1.3903 0.0000 0.0000
vt -1.3903 1.0000 0.0000
vt -2.3903 1.0000 0.0000
vt -2.3903 0.0000 0.0000
vt 0.0259 0.3114 0.0000
vt 0.9733 0.3104 0.0000
vt 0.9741 0.9872 0.0000
vt 0.0267 0.9882 0.0000
vt 1.8117 0.0000 0.0000
vt 2.8117 0.0000 0.0000
vt 2.8117 1.0000 0.0000
vt 1.8117 1.0000 0.0000
vt 2.0259 0.0000 0.0000
vt 3.0259 0.0000 0.0000
vt 3.0259 1.0000 0.0000
vt 2.0259 1.0000 0.0000
vt -2.0770 0.0000 0.0000
vt -1.0770 0.0000 0.0000
vt -1.0770 1.0000 0.0000
vt -2.0770 1.0000 0.0000
vt 2.3685 0.0000 0.0000
vt 3.3685 0.0000 0.0000
vt 3.3685 1.0000 0.0000
vt 2.3685 1.0000 0.0000
# 24 texture coords

o Box001
g Box001
usemtl wire_154185229
s 2
f 1/1/1 2/2/1 3/3/1 
f 3/3/1 4/4/1 1/1/1 
s 4
f 5/5/2 6/6/2 7/7/2 
f 7/7/2 8/8/2 5/5/2 
s 8
f 1/9/3 4/10/3 6/11/3 
f 6/11/3 5/12/3 1/9/3 
s 16
f 4/13/4 3/14/4 7/15/4 
f 7/15/4 6/16/4 4/13/4 
s 32
f 3/17/5 2/18/5 8/19/5 
f 8/19/5 7/20/5 3/17/5 
s 64
f 2/21/6 1/22/6 5/23/6 
f 5/23/6 8/24/6 2/21/6 
# 12 faces

